<?xml version="1.0" standalone="no"?>
<!DOCTYPE svg PUBLIC "-//W3C//DTD SVG 20010904//EN"
 "http://www.w3.org/TR/2001/REC-SVG-20010904/DTD/svg10.dtd">
<svg version="1.0" xmlns="http://www.w3.org/2000/svg"
 width="225.000000pt" height="225.000000pt" viewBox="0 0 225.000000 225.000000"
 preserveAspectRatio="xMidYMid meet">

<g transform="translate(0.000000,225.000000) scale(0.100000,-0.100000)"
fill="#000000" stroke="none">
<path d="M1042 1575 c-120 -7 -208 -17 -214 -23 -9 -9 -8 -44 1 -134 7 -68 15
-125 17 -127 12 -13 14 16 4 90 -5 46 -10 103 -10 126 0 37 3 43 20 43 12 0
96 4 188 10 422 24 396 27 382 -50 -12 -61 -12 -86 -1 -74 5 5 11 41 13 79 l3
70 -100 1 c-55 1 -191 -4 -303 -11z"/>
<path d="M1100 1460 c0 -15 7 -20 25 -20 23 0 25 -4 25 -45 0 -37 3 -44 18
-42 32 5 42 18 42 54 0 32 2 35 25 31 21 -4 25 -1 25 18 0 23 -3 24 -80 24
-73 0 -80 -2 -80 -20z"/>
<path d="M1470 1461 c13 -9 13 -12 0 -25 -54 -53 -483 -166 -629 -166 -65 0
-76 6 -58 29 11 14 9 14 -13 0 -41 -27 -32 -44 28 -47 51 -3 52 -3 52 -36 0
-17 5 -37 12 -44 15 -15 514 -17 523 -2 3 6 14 58 24 117 11 59 23 109 27 110
5 2 24 12 42 23 37 23 38 43 1 48 -19 2 -21 1 -9 -7z m-64 -96 c-3 -8 -8 -38
-12 -67 -3 -29 -10 -68 -16 -86 l-10 -32 -246 2 -246 3 -8 30 c-4 16 -3 34 2
39 5 5 52 9 104 10 70 0 96 4 96 13 0 7 8 13 18 13 9 0 27 3 40 6 18 5 22 2
22 -15 0 -17 6 -21 30 -21 27 0 30 3 30 30 0 28 3 30 93 59 109 35 111 35 103
16z"/>
<path d="M1020 1370 c0 -27 4 -50 9 -50 20 0 41 33 41 66 0 30 -3 34 -25 34
-23 0 -25 -3 -25 -50z"/>
<path d="M830 1118 c1 -41 9 -43 274 -46 266 -3 296 1 296 38 0 19 -8 20 -285
20 -221 0 -285 -3 -285 -12z"/>
<path d="M490 884 c0 -48 3 -65 13 -62 7 3 13 28 15 66 2 51 0 62 -13 62 -12
0 -15 -13 -15 -66z"/>
<path d="M540 941 c0 -5 9 -13 20 -16 16 -5 20 -15 20 -56 0 -27 5 -49 10 -49
6 0 10 22 10 49 0 41 4 51 20 56 37 12 21 25 -30 25 -27 0 -50 -4 -50 -9z"/>
<path d="M717 943 c-17 -16 -6 -54 18 -65 30 -14 27 -34 -4 -30 -15 1 -21 -3
-19 -10 8 -22 53 -21 74 3 19 21 19 21 -13 48 -40 33 -41 41 -8 41 14 0 25 5
25 10 0 11 -63 14 -73 3z"/>
<path d="M810 940 c0 -6 7 -13 15 -16 11 -4 15 -21 15 -56 0 -65 24 -61 28 6
2 30 8 49 18 53 29 11 13 23 -31 23 -25 0 -45 -5 -45 -10z"/>
<path d="M932 938 c-14 -18 -17 -48 -9 -80 9 -35 48 -46 82 -24 32 21 36 89 6
106 -27 14 -66 13 -79 -2z m66 -47 c4 -35 -11 -53 -35 -44 -13 5 -18 64 -6 77
17 16 38 -1 41 -33z"/>
<path d="M1060 886 c0 -52 3 -66 15 -66 8 0 15 9 15 19 0 31 19 35 32 7 6 -14
17 -26 25 -26 16 0 16 5 3 30 -8 14 -7 25 2 40 20 31 -1 54 -51 58 l-41 3 0
-65z m67 28 c6 -16 -15 -37 -29 -28 -4 3 -8 14 -8 25 0 23 28 26 37 3z"/>
<path d="M1190 885 l0 -65 39 0 c22 0 43 5 46 10 4 6 -7 10 -24 10 -24 0 -31
4 -31 20 0 13 7 20 20 20 11 0 20 5 20 10 0 6 -9 10 -20 10 -11 0 -20 7 -20
15 0 9 9 15 25 15 14 0 25 5 25 10 0 6 -18 10 -40 10 l-40 0 0 -65z"/>
<path d="M1367 932 c-23 -25 -21 -68 3 -92 21 -21 55 -26 65 -10 3 6 -2 10
-12 10 -25 0 -43 19 -43 45 0 26 18 45 42 45 10 0 18 5 18 10 0 17 -56 11 -73
-8z"/>
<path d="M1476 934 c-24 -24 -20 -80 6 -98 30 -21 54 -20 78 4 25 25 26 72 2
93 -23 21 -66 22 -86 1z m64 -23 c12 -24 -4 -75 -23 -68 -20 6 -32 54 -17 71
17 21 27 20 40 -3z"/>
<path d="M1616 933 c-11 -39 -10 -107 2 -111 7 -2 12 7 12 25 0 15 5 35 10 43
7 12 11 8 16 -17 4 -23 12 -33 24 -33 11 0 23 13 31 33 l12 32 6 -39 c3 -22
12 -41 19 -44 14 -4 15 14 6 82 -9 62 -36 64 -57 4 l-14 -43 -13 43 c-14 44
-44 58 -54 25z"/>
</g>
</svg>
