<?xml version="1.0" encoding="utf-8"?>
<!-- Generator: Adobe Illustrator 22.0.1, SVG Export Plug-In . SVG Version: 6.00 Build 0)  -->
<svg version="1.1" id="Layer_1" xmlns="http://www.w3.org/2000/svg" xmlns:xlink="http://www.w3.org/1999/xlink" x="0px" y="0px"
	 viewBox="0 0 100 100" style="enable-background:new 0 0 100 100;" xml:space="preserve">
<style type="text/css">
	.st0{opacity:0.85;}
	.st1{fill:#CCCCCC;}
	.st2{fill:#39B54A;}
	.st3{fill:none;}
	.st4{clip-path:url(#SVGID_2_);}
	.st5{clip-path:url(#SVGID_4_);}
	.st6{fill:#00FF00;}
	.st7{fill:#FFFFFF;}
	.st8{fill:#42B549;}
	.st9{opacity:0.5;fill:#CCCCCC;}
	.st10{fill:none;stroke:#CCCCCC;stroke-miterlimit:10;}
</style>
<g>
	<polygon class="st7" points="24.7,14.7 19.6,22 17.4,54.6 20.7,80.5 24.5,85.1 67.4,86.5 78.5,81.4 82.2,56.3 81.9,39.6 78,17.2 
		73.1,13.7 	"/>
	<path class="st2" d="M72.7,49.3l1.4-6.5c-1.4,0-2.7,0-4,0c-5.6,5.4-11.3,9.7-16.9,14.5c1.7-5.2,3.4-10.5,5.1-15.7
		c-1.4-3.8-2.9-12.5-4.3-16.3c0,0,0,0,0,0c-2.1,9.2-4.2,23.9-6.2,32.6l-14-0.1l0-3.3l7.5,0l3.4-6.5l-10.9,0l0-2.2l14.1,0.1l0-7.6
		l-22-0.1l3.4,7.6l-2.1,0l-0.1,14.9l-0.9,4.7l19.4,0.1l0-0.8l2,0c4-2.3,8.1-4.5,12.1-6.8c2.4,2.4,4.8,4.8,7.2,7.2
		c0.4,0.4,0.9,0.9,1.4,1.3c1.1-1.2,2.3-2.4,3.4-3.6c0,0,0.1-0.3,0.1-0.4C68.9,59.9,66,58,63,54.7c0,0,0,0,0,0
		c2.3-1.1,4.6-3.2,6.9-5.4C71.3,49.3,71.3,49.3,72.7,49.3z"/>
	<path class="st2" d="M82.9,20.6c-0.8-4.4-4.3-7.8-8.6-8.6c-13.6-2.6-34.4-2.6-48.6,0.2c-4.4,0.8-7.8,4.3-8.7,8.6
		c-2.7,13.8-2.6,44.6,0.2,58.6c0.9,4.4,4.3,7.8,8.6,8.6c14,2.7,35,2.7,48.7-0.1c4.4-0.9,7.8-4.3,8.6-8.6
		C85.7,65.4,85.6,34.7,82.9,20.6z M78,75.6c-0.7,3.7-3.6,6.6-7.3,7.3c-11.6,2.3-29.5,2.4-41.3,0.1c-3.7-0.7-6.6-3.6-7.3-7.3
		c-2.3-11.9-2.4-39.5-0.2-51.3c0.7-3.7,3.6-6.6,7.3-7.3c12-2.3,29.7-2.4,41.3-0.2c3.7,0.7,6.6,3.6,7.3,7.3
		C80.2,36.3,80.3,63.8,78,75.6z"/>
</g>
</svg>
