<?xml version="1.0" encoding="utf-8"?>
<!-- Generator: Adobe Illustrator 22.0.1, SVG Export Plug-In . SVG Version: 6.00 Build 0)  -->
<svg version="1.1" id="Layer_1" xmlns="http://www.w3.org/2000/svg" xmlns:xlink="http://www.w3.org/1999/xlink" x="0px" y="0px"
	 viewBox="0 0 100 100" style="enable-background:new 0 0 100 100;" xml:space="preserve">
<style type="text/css">
	.st0{fill:#FFFFFF;}
	.st1{opacity:0.85;}
	.st2{fill:#CCCCCC;}
	.st3{fill:#39B54A;}
	.st4{fill:none;}
	.st5{clip-path:url(#SVGID_2_);}
	.st6{clip-path:url(#SVGID_4_);}
	.st7{fill:#00FF00;}
	.st8{fill:#42B549;}
	.st9{opacity:0.5;fill:#CCCCCC;}
	.st10{fill:none;stroke:#CCCCCC;stroke-miterlimit:10;}
</style>
<rect x="-6" y="-6" class="st0" width="112" height="112"/>
<path class="st3" d="M72.6,49l1.3-6.5c-1.4,0-2.7,0-4,0c-5.6,5.5-11.1,9.8-16.7,14.7c1.6-5.3,3.3-10.5,4.9-15.8
	c-1.5-3.7-3-12.5-4.5-16.2c0,0,0,0,0,0c-2,9.2-3.9,24-5.8,32.7l-14,0.1l0-3.3l7.5-0.1l3.3-6.6l-10.9,0.1l0-2.2l14.1-0.1l-0.1-7.6
	l-22,0.2l3.5,7.6l-2.1,0L27.3,61l-0.8,4.7l19.4-0.2l0-0.8l2,0c4-2.3,8-4.6,12-7c2.4,2.4,4.9,4.8,7.3,7.1c0.4,0.4,0.9,0.9,1.4,1.3
	c1.1-1.2,2.2-2.4,3.3-3.7c0,0,0.1-0.3,0.1-0.4c-2.9-2.5-5.9-4.4-8.8-7.6c0,0,0,0,0,0c2.3-1.1,4.5-3.3,6.8-5.5
	C71.2,49,71.3,49,72.6,49z"/>
</svg>
