<svg xmlns="http://www.w3.org/2000/svg" viewBox="0 0 200 200"><title>Cooler Fan</title><circle cx="100" cy="100" r="95.9464" style="fill:#00aed6"/><path d="M88.6352,48.0836H108.61a5.0087,5.0087,0,0,0,1.4538.1019c5.1064.0454,10.2061.3015,15.302.5844,6.6971.3718,13.3871.8706,20.0805,1.3084a4.6674,4.6674,0,0,1,4.3481,4.1411c.1494,1.6556.2543,3.3156.3592,4.9749.3057,4.835.5949,9.671.9027,14.5058.4465,7.0129.7584,14.0308.8467,21.058.008.6284.0654,1.2561.1,1.8841v13.4311a7.3166,7.3166,0,0,0-.0922.8508c.0217,4.3594-.1965,8.7122-.3672,13.0659q-.1635,4.1664-.413,8.33c-.2427,4.061-.5722,8.1175-.77,12.18-.1643,3.3775-1.8318,5.1766-5.1926,5.39q-8.4068.5342-16.8131,1.0744c-7.2094.46-14.4236.7966-21.649.8563-.3412.0028-.682.0624-1.023.0955H91.7347c-.3986-.0332-.7968-.0883-1.1959-.0959-1.8355-.0349-3.6725-.0216-5.5066-.09-5.4717-.2032-10.9436-.4014-16.4079-.7725-4.7468-.3223-9.4978-.5835-14.2438-.9163a4.6949,4.6949,0,0,1-4.5686-4.5932c-.069-.8282-.1114-1.6585-.178-2.4869-.51-6.3439-.8532-12.6985-1.1378-19.0549-.2707-6.0449-.4645-12.0942-.4093-18.1478.0042-.4558-.058-.9122-.0893-1.3683v-2.0663c.0314-.4849.0935-.97.0894-1.4547-.038-4.5054.0824-9.0083.2234-13.51q.1359-4.3425.3778-8.6816c.2382-4.2363.5108-8.4709.7934-12.7045.2672-4.0043.5444-8.0081.8606-12.0087a4.5174,4.5174,0,0,1,3.5194-3.9794,13.457,13.457,0,0,1,1.9647-.221c5.0076-.3076,10.0164-.5965,15.0239-.9053,5.554-.3424,11.1111-.5974,16.6757-.6773C87.896,48.1764,88.2654,48.1176,88.6352,48.0836Zm11.5681,6.7909a44.9662,44.9662,0,1,0,44.8266,46.994A45.0017,45.0017,0,0,0,100.2033,54.8745ZM55.6759,139.8823a2.9435,2.9435,0,0,0-3.0814,2.8743,4.184,4.184,0,0,0,4.1567,4.3133,3.203,3.203,0,0,0,3.07-3.3047A4.3584,4.3584,0,0,0,55.6759,139.8823Zm.55-78.5452a4.688,4.688,0,0,0,4.3453-4.5391,3.2975,3.2975,0,0,0-3.6188-3.3668,4.6082,4.6082,0,0,0-4.3227,4.5182A3.2861,3.2861,0,0,0,56.2254,61.3371Zm87.1026,85.292a4.7491,4.7491,0,0,0,4.7046-4.6645,3.4016,3.4016,0,0,0-3.7286-3.6519,4.6913,4.6913,0,0,0-4.6831,4.6736A3.34,3.34,0,0,0,143.328,146.6291Zm1.4259-85.5451a3.0063,3.0063,0,0,0,2.9326-2.97A4.6211,4.6211,0,0,0,143.6927,54.1a3.0393,3.0393,0,0,0-2.9678,3.0985A3.8185,3.8185,0,0,0,144.7539,61.084Z" style="fill:#fff"/><path d="M99.2874,77.2829c0-2.1231.0466-4.2475-.009-6.3692a8.4812,8.4812,0,0,1,9.4231-8.6457c6.435.76,11.5755,3.8337,14.7606,9.61,2.02,3.6626,1.6015,7.4186-.3585,11.0281a36.4338,36.4338,0,0,1-8.7633,10.07,1.4887,1.4887,0,0,0-.5172,1.9995,11.217,11.217,0,0,1,.55,1.8959c.299,1.2471.3457,1.3266,1.6623,1.3857,1.2031.054,2.4092.0494,3.6141.0544,3.07.0128,6.14.015,9.21.0244a8.871,8.871,0,0,1,8.896,8.6789,16.0608,16.0608,0,0,1-1.7381,7.1226,18.0588,18.0588,0,0,1-6.3366,7.7734,11.1673,11.1673,0,0,1-11.8981.8591,27.6775,27.6775,0,0,1-7.688-5.7349,33.7021,33.7021,0,0,1-2.9191-3.1561,1.2674,1.2674,0,0,0-1.6607-.4914,12.09,12.09,0,0,1-3.0577.854,1.149,1.149,0,0,0-1.103,1.332c-.0074,4.016-.2508,8.042-.0442,12.0455.3429,6.6477-5.6049,10.7374-11.6171,9.314-5.3033-1.2556-9.7343-3.9967-12.6092-8.8476a11.12,11.12,0,0,1-.9523-9.6053c1.2679-3.8067,3.7589-6.7977,6.522-9.5889,1.0484-1.0591,2.1518-2.0661,3.2662-3.0562a1.4155,1.4155,0,0,0,.51-1.7982A7.98,7.98,0,0,1,85.97,101.42c-.0455-.8474-.445-1.1829-1.3217-1.1738-4.3608.0451-8.7242-.0378-13.0827.0755a8.6525,8.6525,0,0,1-8.83-7.7346,8.9792,8.9792,0,0,1,.1061-3.0843,20.1919,20.1919,0,0,1,7.5158-12.086c4.4223-3.3554,9.4671-3.3515,14.1615-.5548A41.7722,41.7722,0,0,1,94.49,85.756a1.2261,1.2261,0,0,0,1.6278.4648,6.4418,6.4418,0,0,1,2.1658-.5218c.74-.0663,1.0336-.4379,1.0252-1.1858-.0268-2.41-.01-4.82-.01-7.23Zm4.5369,1.6919.1444,0c0,2.8687.0135,5.7375-.0051,8.606-.011,1.7-.8881,2.6342-2.5482,2.5441a12.5686,12.5686,0,0,0-5.7683,1.1086,2.3777,2.3777,0,0,1-3.2591-.8356,67.6067,67.6067,0,0,0-4.92-5.524,27.6948,27.6948,0,0,0-5.8332-4.5207c-3.0044-1.7061-5.9524-1.7449-8.7841.3743a15.0718,15.0718,0,0,0-5.9767,10.0945,3.7831,3.7831,0,0,0,.0171,1.1133,4.2877,4.2877,0,0,0,4.6437,3.8056c5.3941-.0357,10.7879-.1115,16.1819-.1528,2.2308-.0171,3.1277,1.0388,2.8007,3.2634a7.7182,7.7182,0,0,0-.006,2.0539,19.2859,19.2859,0,0,0,1.15,3.9566,2.306,2.306,0,0,1-.8226,2.8307c-.9484.7877-1.8989,1.575-2.8121,2.4025a31.8819,31.8819,0,0,0-7.09,8.4676,7.2854,7.2854,0,0,0,.19,7.983,14.9738,14.9738,0,0,0,9.3611,6.2526c3.5984.8614,6.3888-1.4415,6.27-4.9806-.1728-5.131-.0686-10.2716-.06-15.4081.003-1.7465.8822-2.7121,2.5611-2.6658a12.3245,12.3245,0,0,0,6.6066-1.5539,2.2158,2.2158,0,0,1,2.9969.6458c.9344,1.0879,1.8483,2.195,2.8163,3.2523a27.4842,27.4842,0,0,0,8.7872,6.9366,6.5774,6.5774,0,0,0,6.6432-.49,14.728,14.728,0,0,0,6.3852-9.7411,4.7569,4.7569,0,0,0-4.9122-5.9654c-5.2442.1929-10.5009.05-15.7523.0383-1.58-.0035-2.4912-.6443-2.5772-2.0612a15.139,15.139,0,0,0-1.782-6.5761,2.1038,2.1038,0,0,1,.6776-2.8369c1.5335-1.34,3.0881-2.6563,4.6008-4.0192a26.1752,26.1752,0,0,0,5.7963-7.3157,6.707,6.707,0,0,0-.1654-7.0486,14.357,14.357,0,0,0-9.9621-6.5964c-3.1439-.5736-5.9008,1.3079-5.6285,4.9893C103.9746,73.9132,103.8243,76.45,103.8243,78.9748Z" style="fill:#fff"/><path d="M100.448,93.1169a6.8158,6.8158,0,0,1,6.7973,7.0548,6.9157,6.9157,0,1,1-13.8189-.5883A6.8162,6.8162,0,0,1,100.448,93.1169Zm2.1122,6.8108a2.2188,2.2188,0,0,0-4.4359-.0409,2.1472,2.1472,0,0,0,2.2932,2.2352A2.1057,2.1057,0,0,0,102.56,99.9277Z" style="fill:#fff"/></svg>