<svg xmlns="http://www.w3.org/2000/svg" viewBox="0 0 200 200"><title>Drawing Tablet</title><circle cx="100" cy="100" r="97.5" style="fill:#93328e"/><path d="M98.9585,55.2438,120.14,59.677c.313.1007.6206.2244.94.2986,3.45.8027,6.9078,1.5725,10.3513,2.4017q4.9455,1.1909,9.8672,2.48c5.11,1.3309,10.2126,2.6921,15.3162,4.0482,2.1168.5625,4.248,1.0821,6.3375,1.7337,3.1122.9705,5.0111,4.5048,4.3912,8.2729-.9451,5.7445-1.8445,11.4979-2.9819,17.2095-.1108.5562-.1651,1.1236-.2457,1.6858l-5.0243,24.0052c-.6407,2.5923-1.3034,5.1794-1.9177,7.7778q-1.9175,8.11-4.1129,16.1476a7.1717,7.1717,0,0,1-3.5327,4.35c-1.9514,1.1592-3.9856.8734-6.0443.5466-7.2946-1.1578-14.5986-2.26-21.88-3.4946-7.3726-1.25-14.7513-2.474-22.0756-3.9949-.35-.0727-.7126-.0831-1.0694-.1226l-20.475-4.2854a5.2081,5.2081,0,0,0-.6768-.2388c-4.6769-.9748-9.3092-2.1373-13.94-3.3038-3.32-.8361-6.6413-1.6655-9.9524-2.5348-3.6585-.96-7.3061-1.9626-10.9581-2.9477-3.3335-.899-6.6821-1.7464-9.9955-2.7142a7.0617,7.0617,0,0,1-5.066-7.4109c.9124-6.1169,1.7812-12.2412,2.7805-18.344,1.14-6.9649,2.2741-13.9329,3.7414-20.84.0929-.4374.12-.8888.1782-1.3337l2.3643-11.2966c.1378-.4892.3047-.9723.4089-1.4686q1.507-7.1842,3.37-14.2842a7.1573,7.1573,0,0,1,7.3878-5.23c1.5217.1352,3.0309.4188,4.5426.6551,6.9076,1.08,13.8217,2.12,20.7191,3.2622,8.2907,1.3723,16.5881,2.7127,24.8273,4.38C98.1222,55.1692,98.5431,55.1927,98.9585,55.2438ZM60.3414,90.8446c-1.1051,5.448-2.12,10.9129-3.0892,16.3871-1.1741,6.6279-2.2361,13.2728-3.2451,19.9271-.1112.7334.1464,1.0231.8267,1.1974,3.084.79,2.4674.9045,5.5612,1.6524,6.8625,1.6588,13.7277,3.31,20.614,4.8657,9.5864,2.1658,19.2629,3.8874,28.9211,5.6944,3.5135.6573,7.0392,1.2535,10.5675,1.8274,7.1446,1.1622,14.3024,2.245,21.44,3.4493a7.2044,7.2044,0,0,0,8.3243-5.2506c1.7429-6.6218,3.4073-13.2677,4.927-19.9439,2.3479-10.314,4.5049-20.6707,6.3437-31.09.4541-2.5727.9048-5.1482,1.2593-7.7359a7.0525,7.0525,0,0,0-5.6355-8.1011c-.9057-.2134-1.7954-.494-2.6979-.7221-7.98-2.0169-15.9361-4.1229-23.9473-6.0172-3.1878-.7538-6.3945-1.42-9.5768-2.1938-9.2614-2.2506-18.63-3.9871-27.9919-5.7371-8.9166-1.6667-14.19-2.3842-23.1467-3.8247-.8741-.1406-1.2423.0555-1.45.9231-1.1136,4.6453-2.319,9.2688-3.4107,13.9191C63.3137,76.9752,61.71,83.884,60.3414,90.8446ZM39.97,74.7247c-1.6316,7.7726-2.9158,14.4069-4.06,21.071-1.1538,6.72-2.17,13.4605-3.2215,20.196a7.0846,7.0846,0,0,0,5.6428,8.3407c2.4489.6021,8.5539,2.0614,10.9837,2.7382,1.0567.2943,1.1781.2437,1.3388-.8364.5525-3.7124,1.07-7.43,1.665-11.1359,1.1849-7.3848,2.5029-14.7471,3.8979-22.0948,1.5133-7.9714,3.3447-15.8755,5.1568-23.7827.5366-2.3413,1.1708-4.66,1.7474-6.9924s1.13-4.671,1.709-7.0031c.1613-.65.0308-1.0091-.7144-1.1177-2.2581-.3292-8.1793-1.5318-10.4417-1.8236a11.3885,11.3885,0,0,0-4.1064-.2951,7.3457,7.3457,0,0,0-5.8169,5.86C42.3122,63.8375,40.9253,69.839,39.97,74.7247Z" style="fill:#fff"/><path d="M43.8685,73.26c.7958-4.4078,1.887-8.5643,2.87-12.744a7.4854,7.4854,0,0,1,4.4986-5.6021,4.4826,4.4826,0,0,1,2.3857-.2984q3.43.5049,6.8528,1.0627c1.1062.1824,1.2256.3574.9615,1.446-1.1183,4.61-2.3254,9.2-3.3749,13.8248-1.2692,5.5943-2.4171,11.2161-3.6072,16.8282-.5688,2.682-.3645,2.3415-2.8087,1.8128-3.1991-.692-6.3806-1.4651-9.581-2.1505-.8626-.1847-1.0532-.59-.8816-1.3934C42.1058,81.7286,43.001,77.405,43.8685,73.26Z" style="fill:#fff"/><path d="M47.0258,90.9626c1.7634.3691,3.5223.7622,5.2922,1.0969.8477.16,1.1514.5179.9808,1.42-.8817,4.66-1.7641,9.3212-2.5473,13.9985-.8871,5.2982-1.677,10.6128-2.4914,15.9229-.1844,1.2022-.3339,1.36-1.5036,1.0542-2.0617-.5386-4.1265-1.0715-6.1661-1.6862a6.5894,6.5894,0,0,1-4.2636-7.3966c.9484-6.4735,1.944-12.9392,3.0921-19.3816.3264-1.8319.6452-3.6653.98-5.496.1459-.7978.4856-1.05,1.2953-.8609,1.7816.417,3.58.763,5.3712,1.1379Z" style="fill:#fff"/><path d="M150.4071,41.8284h0A2.4714,2.4714,0,0,1,152.8785,44.3v57.0437a0,0,0,0,1,0,0h-4.9429a0,0,0,0,1,0,0V44.3A2.4714,2.4714,0,0,1,150.4071,41.8284Z" transform="translate(64.418 -71.077) rotate(33.4688)" style="fill:#fff"/><path d="M130.246,104.3227c-1.2475,1.3228-2.79.3031-2.0616-1.3629h0l2.8919-6.6152,2.0617,1.363,2.0616,1.363-4.9535,5.2521Z" style="fill:#fff"/><path d="M71.8743,110.5955A48.0386,48.0386,0,0,0,87.75,96.4291a94.13,94.13,0,0,0,5.9916-9.1873,63.7007,63.7007,0,0,0,4.8194-9.2828c1.0854-2.9111,1.5091-6.6291-1.2578-8.78-2.77-2.1538-6.8265-1.16-9.1088,1.2245-2.7,2.82-3.4349,7.1353-4.3074,10.79q-1.5669,6.5635-2.57,13.2449A147.2073,147.2073,0,0,0,79.8059,109.29a37.94,37.94,0,0,0,1.4277,13.5179,1.6736,1.6736,0,0,0,3.0371.2323l3.7779-6.1244a43.7217,43.7217,0,0,1,3.0663-4.66,7.3845,7.3845,0,0,1,4.0824-2.9055,6.9871,6.9871,0,0,1,5.0719,1.3949c3.5413,2.3306,5.8675,6.055,9.4876,8.3162a9.5147,9.5147,0,0,0,10.432.0843c3.1874-2.1055,5.1595-5.6774,6.777-9.0313.9239-1.9157-2.0144-3.4305-2.9393-1.5128-1.3418,2.7825-2.904,5.908-5.53,7.7009-3.3077,2.2584-6.7639.5-9.4236-1.904-3.1022-2.8045-5.6686-6.3289-9.7395-7.8168-3.8088-1.3922-7.502-.1051-10.1477,2.8432a35.9164,35.9164,0,0,0-3.632,5.2579l-4.2224,6.8449,3.0371.2324c-2.2762-7.0484-1.2982-14.902-.4292-22.1147q.7161-5.9433,1.8814-11.8206A99.429,99.429,0,0,1,88.554,76.4418c.7938-2.4427,2.552-5.5605,5.5992-5.1216,2.8057.4041,1.979,3.9094,1.2463,5.6932a73.1894,73.1894,0,0,1-4.4215,8.41,89.4456,89.4456,0,0,1-5.1619,8.0843c-4.2263,5.817-9.3359,10.9585-15.75,14.3217a1.6661,1.6661,0,0,0-.4787,2.2873,1.6875,1.6875,0,0,0,2.2873.4787Z" style="fill:#fff"/></svg>