<svg xmlns="http://www.w3.org/2000/svg" viewBox="0 0 200 200"><title>Gadget</title><circle cx="100" cy="100" r="97.5" style="fill:#93328e"/><path d="M94.0751,37.9381H108.41c.4739.0386.9472.0931,1.422.113,2.2575.0948,4.5193.1242,6.7724.2806,4.5689.3172,9.1314.7276,13.7,1.0492q5.1208.36,5.5106,5.4863c.2291,3.0123.5514,6.0175.8333,9.0258.4394,4.6878.8185,9.38,1.0752,14.0819.21,3.8457.4189,7.6913.3993,11.5451a6.5848,6.5848,0,0,0,.1028.8482v15.29a8.6227,8.6227,0,0,0-.1033.9442c-.0168,6.6556-.2163,13.3075-.3986,19.96-.1412,5.1556-.2806,10.3115-.4611,15.4659-.205,5.8531-.4491,11.7048-.6879,17.5567-.1052,2.5752-.1388,5.1592-.3914,7.7209a4.454,4.454,0,0,1-3.9163,3.9689c-7.2808.3783-14.564.7341-21.8555.7625-6.7821.0265-13.5637.0782-20.347-.1443q-11.4074-.3742-22.8023-.98a3.55,3.55,0,0,1-2.3142-.9977,5.2486,5.2486,0,0,1-1.6909-3.8245c-.0608-2.0365-.13-4.0728-.1924-6.1093-.1805-5.8547-.3965-11.7086-.531-17.5644-.2134-9.2942-.6178-18.584-.6512-27.8825-.0017-.4741-.07-.948-.1075-1.422V79.9859c.0375-.3781.1056-.756.1077-1.1343.0257-4.5843.302-9.1571.5559-13.7328.3877-6.9876,1.01-13.9561,1.5723-20.93a4.9111,4.9111,0,0,1,3.9942-4.3985c6.8731-.6266,13.7422-1.3062,20.644-1.5605C90.4587,38.1634,92.2664,38.0371,94.0751,37.9381Zm38.97,58.1126c.0979-11.9117-.1028-23.8142-1.0061-35.6965-.2074-2.728-.4438-5.4556-.7527-8.1736A5.1544,5.1544,0,0,0,127,47.7624c-6.8176-.6023-13.6481-1.0122-20.4907-1.1574a299.75,299.75,0,0,0-33.3786,1.3392,5.2254,5.2254,0,0,0-4.0935,2.0943,6.2116,6.2116,0,0,0-1.0545,3.3241c-.4108,5.9678-.8944,11.9338-1.1377,17.9092q-.39,9.59-.3834,19.1942.0131,17.48.7021,34.9494c.1652,4.1666.2569,8.3362.4245,12.5027a4.61,4.61,0,0,0,4.743,4.7186c1.4307.0716,2.8614.1467,4.293.1929,7.7636.25,15.5263.5428,23.2916.7242,9.1711.2143,18.34-.0721,27.5064-.3416a4.55,4.55,0,0,0,4.4462-4.4874c.2509-6.8074.5454-13.6137.7311-20.4229C132.8016,110.8863,132.9008,103.4679,133.045,96.0507Z" style="fill:#fff"/><circle cx="100" cy="153.7049" r="4.7781" style="fill:#93328e"/><rect x="86.4619" y="41.4184" width="27.0762" height="1.3273" style="fill:#93328e"/></svg>