<?xml version="1.0" encoding="utf-8"?>
<!-- Generator: Adobe Illustrator 22.0.1, SVG Export Plug-In . SVG Version: 6.00 Build 0)  -->
<svg version="1.1" id="Layer_1" xmlns="http://www.w3.org/2000/svg" xmlns:xlink="http://www.w3.org/1999/xlink" x="0px" y="0px"
	 viewBox="0 0 200 200" style="enable-background:new 0 0 200 200;" xml:space="preserve">
<style type="text/css">
	.st0{fill:#EE2737;}
	.st1{fill:#FFFFFF;}
	.st2{fill:#00AA13;}
	.st3{fill:#DF1995;}
	.st4{fill:#F06400;}
	.st5{fill:#383838;}
	.st6{fill:#00AED6;}
	.st7{fill:#93328E;}
	.st8{fill:none;}
	.st9{fill:#F8F8F8;}
	.st10{fill:#F2F2F2;}
	.st11{fill:#231F20;}
	.st12{fill:#D1D3D4;}
</style>
<circle class="st0" cx="94.7" cy="102.9" r="95.4"/>
<g>
	<path class="st1" d="M93.4,176.4c-1.4-0.7-2-1.8-1.9-3.3c0.1-1.8,0-3.6,0.1-5.4c0.1-1.6,1-2.5,2.6-2.5c1.6-0.1,2.7,0.8,2.8,2.3
		c0.2,2.2,0.1,4.4,0,6.6c0,1.1-0.9,1.8-1.8,2.3C94.5,176.4,93.9,176.4,93.4,176.4z"/>
	<path class="st1" d="M59.4,121.2c-2.6,0.7-5.5-1.4-5.9-4.5c-0.5-3.9-0.8-7.9-1-11.8c-0.1-1.4,0.4-2.9,2.2-3
		c2.5-0.2,3.7,1.2,3.9,3.5c0.3,3.7,0.6,7.5,1,11.5c2.7-3.4,5.8-1.6,8.6-1.2c18.9,2.6,37.8,2.4,56.6-0.4c1.7-0.2,3,0.2,4.2,1.9
		c0.4-3.9,0.7-7.5,1-11.1c0.2-2,0.7-3.7,3.1-4c2.5-0.3,3.4,1,3.2,3.1c-0.2,4-0.5,8-1.2,11.9c-0.5,2.7-2.1,4.9-5.5,4.5
		c-0.1,0-0.4,0.2-0.4,0.3c-1.2,5.3-5.3,6.3-9.7,6.8c-3.4,0.4-6.8,0.8-10.2,1.3c-0.4,0-0.8,0.1-0.8,0.6c-0.1,2.7-1.9,3.4-4.2,3.8
		c-1.9,0.3-4.5-0.8-5.6,0.8c-0.9,1.4-0.5,3.8-0.6,5.8c-0.1,6.1-0.2,12.2-0.2,18.3c0,2.4-1.2,3.2-3.5,3.3c-2.3,0-3.8-0.6-3.8-3.3
		c0-7.9,0.4-15.8-0.8-23.6c-0.1-0.8-0.3-1.1-1.1-1.1c-1.9-0.1-3.8-0.3-5.7-0.5c-1.9-0.3-2.9-1.4-3.1-3.3c-0.1-0.7-0.4-0.7-0.9-0.8
		c-4.5-0.6-9-1.1-13.5-1.9C62.1,127.2,60.2,124.7,59.4,121.2z"/>
	<path class="st1" d="M119.2,162.1c-5.7,0-11,0-16.3,0c-1.7,0-3.5-0.5-3.5-2.4c0-2.2-1.3-5.2,2.2-6.3c0.6-0.2,1.4-0.1,2.1,0.1
		c6.1,1.8,12.3,3.7,18.8,3.3c0.6,0,1.2,0.2,1.8,0.3c1.3,0.4,2.4,0.9,2.3,2.5c-0.1,1.6-1.2,2.2-2.6,2.5c-0.6,0.1-1.3,0.1-2.1,0.2
		c2.5,1.3,3.7,3.2,2.9,5.8c-0.6,2.1-2.2,3.2-4.5,3.1c-2.2-0.1-3.7-1.3-4.2-3.4C115.5,165.2,116.6,163.4,119.2,162.1z M120.5,168.4
		c1.1-0.2,1.8-0.7,1.8-1.9c0-1.2-0.7-1.8-1.8-1.8c-1.2,0-1.8,0.7-1.8,1.8C118.7,167.7,119.4,168.3,120.5,168.4z"/>
	<path class="st1" d="M66.8,162.2c-2.2-0.2-4.8-0.1-4.7-2.8c0.1-2.6,2.8-2.7,4.7-2.6c6.3,0.3,12.2-1.6,18.2-3.3
		c2.8-0.8,4.4,0.4,4.4,3.3c0,4.8-0.4,5.3-5.3,5.3c-4.7,0-9.5,0-14.5,0c2.6,1.4,3.8,3.3,2.9,5.9c-0.7,2.1-2.3,3.2-4.5,3.1
		c-2.2-0.1-3.6-1.3-4.1-3.4C63.2,165.1,64.4,163.4,66.8,162.2z M68.2,164.7c-1.1,0.1-1.8,0.7-1.9,1.8c0,1.1,0.7,1.8,1.8,1.8
		c1.1,0,1.8-0.6,1.8-1.8C70,165.5,69.4,164.9,68.2,164.7z"/>
	<path class="st1" d="M99.1,46.3h-6.6c-1.2,0-1.9-1-2.1-2.1c-0.5-3.1-0.8-9.2,0-12.3c0.3-1.1,1-2.1,2.1-2.1h6.6c1.2,0,1.9,1,2.1,2.1
		c0.5,3.1,0.5,9.3,0,12.3C101,45.4,100.3,46.3,99.1,46.3z"/>
	<path class="st1" d="M84.7,46.1l-5.1-0.6c-0.9,0-1.5-0.8-1.7-1.7c-0.4-2.4-0.6-7.2,0-9.7c0.2-0.9,0.9-1.2,1.6-1.7
		c4.6-2.9,5.3-3,6.6-3c0.9,0,0.4,1.7,0.2,4.7c-0.2,4.8-0.4,5.6,0,11.6C86.4,46.7,86,46.3,84.7,46.1z"/>
	<path class="st1" d="M107.4,46.1l5.1-0.6c0.9,0,1.5-0.8,1.7-1.7c0.4-2.4,0.6-7.2,0-9.7c-0.2-0.9-0.9-1.2-1.6-1.7
		c-4.6-2.9-5.3-3-6.6-3c-0.9,0-0.4,1.7-0.2,4.7c0.2,4.8,0.4,5.6,0,11.6C105.7,46.7,106.1,46.3,107.4,46.1z"/>
	<path class="st1" d="M104.5,113.3H87.3c-8.1-0.4-7.9-3.8-8.4-8.3c-1.3-12,0.9-35.8,2.8-48.1c0.7-4.5,2.5-8.3,5.6-8.3h17.2
		c3.1,0,5.1,3.8,5.6,8.3c1.3,12.1,4.2,36.2,2.8,48.1C112.4,109.5,112.2,112.9,104.5,113.3z"/>
	<path class="st1" d="M79.9,51.1c-4.2,18.7-6,48.4-3.5,60.8c0,0.2-0.3,0.3-0.4,0.1c0,0-8.7,0-11.6-6.9c-1.1-2.5-1.3-9.6-1.2-12.3
		c0.4-11.4,1.9-23.9,4.7-30.1c0.8-1.7,3-5,4.3-6.3c3-3,6.7-5.1,7.4-5.5C79.7,50.8,80,50.9,79.9,51.1z"/>
	<path class="st1" d="M111.4,51.1c4.2,18.7,6,48.4,3.5,60.8c0,0.2,0.3,0.3,0.4,0.1c0,0,8.7,0,11.6-6.9c1.1-2.5,1.3-9.6,1.2-12.3
		c-0.4-11.4-1.9-23.9-4.7-30.1c-0.8-1.7-3-5-4.3-6.3c-3-3-6.7-5.1-7.4-5.5C111.6,50.8,111.4,50.9,111.4,51.1z"/>
	<path class="st1" d="M55.6,100.5h-4.4c-1.8,0-3.3-1.5-3.3-3.3V96c0-1.8,1.5-3.3,3.3-3.3h4.4c1.8,0,3.3,1.5,3.3,3.3v1.2
		C59,99,57.5,100.5,55.6,100.5z"/>
	<path class="st1" d="M138.3,100.5h-4.4c-1.8,0-3.3-1.5-3.3-3.3V96c0-1.8,1.5-3.3,3.3-3.3h4.4c1.8,0,3.3,1.5,3.3,3.3v1.2
		C141.6,99,140.1,100.5,138.3,100.5z"/>
</g>
</svg>
