<svg xmlns="http://www.w3.org/2000/svg" viewBox="0 0 200 200"><title>Memory Card</title><circle cx="100" cy="100" r="95.4009" style="fill:#ee2737"/><path d="M75.5307,54.5615l26.9916-7.7042a14.1326,14.1326,0,0,0,2.7935-.7056,2.0691,2.0691,0,0,1,1.6576.1719q7.26,3.8361,14.536,7.6434a1.7254,1.7254,0,0,1,.91,1.0985q2.4,7.852,4.8191,15.6981c.3643,1.19.3539,1.219-.8783,1.592-.6041.1828-.8022.4824-.6082,1.0905.2841.891.5278,1.7948.7918,2.6922.3272,1.1121.3386,1.1455,1.4862.8048.6656-.1975,1.0259-.0634,1.226.6252.7063,2.43,1.4475,4.85,2.1645,7.2772.4119,1.3942.4029,1.3991-1.0143,1.8028-6.7211,1.9143-13.4469,3.8126-20.1621,5.7476A5.1866,5.1866,0,0,0,106.499,99.14q5.6394,19.8067,11.3148,39.6033a4.2144,4.2144,0,0,0,5.28,3.0093c6.1954-1.6559,12.2755-3.6858,18.3563-5.712a1.4565,1.4565,0,0,0,.9245-.8631c.3683-.8294.7708-1.6436,1.1625-2.4625.0705-.1473.1449-.3321.33-.3295.1935.0027.25.1891.29.3521.2712,1.1226.5986,2.2356.7963,3.3711a3.1887,3.1887,0,0,1-2.0942,3.754c-.3036.1285-.6128.2472-.9267.3477-6.47,2.0728-12.9045,4.255-19.4416,6.1131-.3148.0895-.6135.2356-.92.3553l-19.2117,5.4836a5.9411,5.9411,0,0,0-.73.1169c-3.49,1.0009-7,1.9294-10.5195,2.8215-4.665,1.1823-9.318,2.4121-13.9856,3.5842-2.2587.5671-3.8026-.32-4.5464-2.5374q-.7869-2.3461-1.5231-4.7094c-2.0021-6.4046-4.06-12.7927-5.9758-19.2231-2.3091-7.7505-4.5021-15.5357-6.7291-23.3106-.5268-1.8393-.8-1.723,1.2145-2.2654.807-.2173.97-.5884.7408-1.37-.8576-2.93-1.6827-5.8689-2.4142-8.8343-.4353-1.7645-.3384-1.734-2.1443-1.1985-.1318.0391-.2669.0672-.3987.106a.6577.6577,0,0,1-.935-.52c-.2-.7719-.3714-1.5513-.5858-2.319-2.382-8.53-4.6177-17.0993-6.8044-25.6814A3.2464,3.2464,0,0,1,49.13,62.72c4.2386-1.371,8.4979-2.6794,12.7587-3.98,4.2878-1.3092,8.588-2.5776,12.8811-3.8693C75.0305,54.7919,75.2773,54.6656,75.5307,54.5615Z" style="fill:#fff"/><path d="M165.222,90.2613c.089.4291.152.8655.2708,1.2862,1.9066,6.75,3.519,13.5766,5.2662,20.3681a3.8158,3.8158,0,0,1-2.6212,4.68c-3.9148,1.2958-7.8249,2.6059-11.7431,3.8912a3.2113,3.2113,0,0,0-2.0718,1.7148c-.7679,1.5821-1.674,3.0967-2.5047,4.649a1.7694,1.7694,0,0,1-1.102.9138c-.9449.2926-1.8771.6275-2.81.9588-.51.1813-.79.0974-.9489-.4972-.4212-1.57-.8346-1.7725-2.3712-1.3043a.5067.5067,0,0,1-.079.0237,4.2888,4.2888,0,0,0-3.8159,3.3437,1.9079,1.9079,0,0,1-1.4354,1.2984c-4.4234,1.5182-8.92,2.8-13.3729,4.2236-3.0455.9735-4.8885-.03-5.7581-3.0817q-4.3992-15.4374-8.799-30.8746a4.6484,4.6484,0,0,1,2.33-5.7341,8.7443,8.7443,0,0,1,1.4786-.5088q21.5433-6.16,43.089-12.3122c2.6912-.7689,3.8743-.37,5.5485,1.88Z" style="fill:#fff"/><path d="M141.4917,114.1038a3.2177,3.2177,0,0,1-3.9792-2.2033l-2.016-7.0631a3.2163,3.2163,0,1,1,6.1855-1.7655l.4214,1.4764-2.024.5777-.4332-1.5178a1.1731,1.1731,0,0,0-1.4469-.8043,1.11,1.11,0,0,0-.6956.5559,1.1359,1.1359,0,0,0-.0985.8881l2.0219,7.0837a1.1549,1.1549,0,0,0,1.4336.7966,1.1381,1.1381,0,0,0,.7027-.5513,1.1046,1.1046,0,0,0,.1056-.8819l-.726-2.5435-1.0843.3095-.56-1.9619,3.1083-.8871,1.291,4.523a3.209,3.209,0,0,1-2.2063,3.9688Z" style="fill:#ee2737"/><path d="M146.2251,112.5739l-3.696-12.9491,2.9221-.8341a3.87,3.87,0,0,1,2.26.0141,2.9509,2.9509,0,0,1,1.5928,1.2762,4.6956,4.6956,0,0,1,.5777,1.32,3.1613,3.1613,0,0,1-.0965,2.2835,2.0365,2.0365,0,0,1-.5371.7,2.36,2.36,0,0,1,1.385.6655,3.9739,3.9739,0,0,1,.81,1.1536,5.3575,5.3575,0,0,1,.3284.8781,4.4974,4.4974,0,0,1,.131,2.2185,3.1129,3.1129,0,0,1-2.0629,2.2414Zm-.08-8.2632.8156-.2328a1.2437,1.2437,0,0,0,.9652-1.2361,2.6425,2.6425,0,0,0-.12-.8479,1.7749,1.7749,0,0,0-.74-1.1068,1.2853,1.2853,0,0,0-1.049-.1135l-.8155.2328Zm1.6358,5.731.8156-.2328a1.44,1.44,0,0,0,1.0816-1.4143,2.3306,2.3306,0,0,0-.0956-.8439,2.5509,2.5509,0,0,0-.864-1.4619,1.3849,1.3849,0,0,0-1.2244-.142l-.8155.2327Z" style="fill:#ee2737"/></svg>