<svg xmlns="http://www.w3.org/2000/svg" viewBox="0 0 200 200"><title>UPS</title><circle cx="100" cy="100" r="95.7807" style="fill:#00aa13"/><path d="M94.8889,32.5492h12.4127c.391.0424.7813.1089,1.1731.1234,2.945.1089,5.88.3868,8.8113.7051,4.6528.5053,9.2762,1.2865,13.9076,1.9964,5.2749.8085,10.1057,5.8878,10.835,11.5783.8149,6.3594,1.6112,12.7212,2.2558,19.1078.7143,7.0774,1.1773,14.1712,1.4558,21.2877.09,2.3111.0211,4.6321.26,6.9359v20.994c-.0981,2.6574-.1773,5.316-.2987,7.9721-.1909,4.1766-.3723,8.3545-.6289,12.5262-.2246,3.6527-.5358,7.2988-.83,10.9455-.2388,2.9588-.51,5.9141-.7656,8.8711-.0572.6615-.2942,1.0639-.9493,1.1362-.935.1031-1.8595.324-2.7918.4656a1.4378,1.4378,0,0,0-1.1986,1.0706,15.0344,15.0344,0,0,1-5.9372,7.4872,14.3982,14.3982,0,0,1-5.2188,1.6985h-1.8254a.7812.7812,0,0,0-.1662-.0843,8.7264,8.7264,0,0,1-6.9621-6.353c-.1669-.5538-.543-.5495-.9674-.4994-4.8394.5713-9.6984.81-14.558.9018A153.7344,153.7344,0,0,1,80.97,160.2676c-.7881-.0982-1.1855.1662-1.4956,1.0476-1.261,3.5841-3.6968,5.46-7.0314,5.5856-5.0283.189-8.6422-2.6354-10.8435-7.5781-.7991-1.7942-1.7108-2.5714-3.3292-2.6011a.6964.6964,0,0,1-.0909-.0092c-1.7439-.2564-1.7406-.2568-1.8914-2.2139-.0319-.4131-.1145-.8212-.1447-1.2344-.4733-6.4776-.9991-12.9494-1.3326-19.4408-.3478-6.7715-.6652-13.5418-.7054-20.3262-.0035-.5845-.0688-1.1686-.1054-1.753V95.1153a10.0447,10.0447,0,0,0,.1-1.0264c-.0093-4.1542.1912-8.2991.3567-12.4473.2179-5.461.6446-10.9008,1.1778-16.3275.58-5.9071,1.31-11.795,1.9528-17.6944.5716-5.2506,4.6962-10.4169,9.2729-11.426,2.4423-.5384,4.912-.9232,7.376-1.3248a162.2723,162.2723,0,0,1,16.4773-1.9938C92.1063,32.7924,93.4971,32.6592,94.8889,32.5492Z" style="fill:#fff"/><polygon points="104.934 49.306 88.345 70.758 99.07 70.758 90.633 88.634 111.655 64.608 101.788 63.75 104.934 49.306" style="fill:#00aa13"/><path d="M65.5762,127.2V114.9561a3.4082,3.4082,0,0,1,.7036-2.3448,2.3672,2.3672,0,0,1,1.85-.7812,2.4293,2.4293,0,0,1,1.9019.7812,3.4112,3.4112,0,0,1,.7036,2.3448v12.5224a11.4157,11.4157,0,0,0,.4775,3.5694,4.1177,4.1177,0,0,0,1.6934,2.2226,6.2155,6.2155,0,0,0,3.4038.79q3.0227,0,4.2729-1.6064a7.8684,7.8684,0,0,0,1.2505-4.8711V114.9561a3.4351,3.4351,0,0,1,.6943-2.3536,2.3779,2.3779,0,0,1,1.8584-.7724,2.46,2.46,0,0,1,1.8848.7724,3.3518,3.3518,0,0,1,.7207,2.3536V127.2a18.1267,18.1267,0,0,1-.582,4.9853,7.6931,7.6931,0,0,1-2.1968,3.5079,8.5308,8.5308,0,0,1-3.2305,1.8759,14.1413,14.1413,0,0,1-4.3076.5909,17.745,17.745,0,0,1-5.0537-.6348,8.0786,8.0786,0,0,1-3.4565-1.9619,7.9078,7.9078,0,0,1-1.9624-3.4043A17.3074,17.3074,0,0,1,65.5762,127.2Z" style="fill:#00aa13"/><path d="M102.4487,127.8086H97.7246v7.208a3.3677,3.3677,0,0,1-.73,2.3447,2.5688,2.5688,0,0,1-3.7163.0078,3.3533,3.3533,0,0,1-.7124-2.3183v-19.626a3.21,3.21,0,0,1,.7817-2.4316,3.5554,3.5554,0,0,1,2.4834-.73h6.6172a17.3535,17.3535,0,0,1,4.5161.4521,6.7192,6.7192,0,0,1,2.7007,1.4414,6.5121,6.5121,0,0,1,1.7281,2.4658,8.6886,8.6886,0,0,1,.59,3.2833,7.2534,7.2534,0,0,1-2.3965,5.8964Q107.19,127.8081,102.4487,127.8086Zm-1.2505-11.6719H97.7246v7.7813h3.4736a10.373,10.373,0,0,0,3.0484-.3819,3.5537,3.5537,0,0,0,1.8672-1.2509,3.7329,3.7329,0,0,0,.6425-2.2754,3.8587,3.8587,0,0,0-.99-2.7442Q104.6543,116.1378,101.1982,116.1367Z" style="fill:#00aa13"/><path d="M135.6392,130.084a7.48,7.48,0,0,1-1.19,4.15,7.9059,7.9059,0,0,1-3.4819,2.8838,13.0558,13.0558,0,0,1-5.4365,1.042,12.2254,12.2254,0,0,1-6.2178-1.4248A8.2806,8.2806,0,0,1,116.4907,134a6.21,6.21,0,0,1-1.0854-3.3262,2.2535,2.2535,0,0,1,2.31-2.2744,1.96,1.96,0,0,1,1.3809.52,4.1049,4.1049,0,0,1,.9639,1.5459,10.2867,10.2867,0,0,0,1.0507,2.0322,4.2529,4.2529,0,0,0,1.5889,1.3458,5.87,5.87,0,0,0,2.6924.53,6.0743,6.0743,0,0,0,3.7251-1.0683A3.2123,3.2123,0,0,0,130.55,130.64a2.82,2.82,0,0,0-.773-2.0585,4.9938,4.9938,0,0,0-1.997-1.2071q-1.2246-.4159-3.274-.8857a23.9742,23.9742,0,0,1-4.5942-1.502,7.4232,7.4232,0,0,1-2.935-2.3447,6.0871,6.0871,0,0,1-1.0855-3.69,6.3371,6.3371,0,0,1,1.1465-3.7344,7.2229,7.2229,0,0,1,3.3174-2.51,13.5761,13.5761,0,0,1,5.1059-.8769,12.61,12.61,0,0,1,4.0557.582,8.5682,8.5682,0,0,1,2.8393,1.5449,6.4571,6.4571,0,0,1,1.65,2.0235,4.6651,4.6651,0,0,1,.521,2.0674,2.4431,2.4431,0,0,1-.6508,1.6582,2.078,2.078,0,0,1-1.6241.7382,1.8684,1.8684,0,0,1-1.3461-.4423,5.9859,5.9859,0,0,1-.9986-1.4512,6.5827,6.5827,0,0,0-1.6675-2.249,4.8773,4.8773,0,0,0-3.1259-.8077,5.4192,5.4192,0,0,0-3.2222.877,2.553,2.553,0,0,0-1.2241,2.11,2.1374,2.1374,0,0,0,.4165,1.32,3.4969,3.4969,0,0,0,1.1465.955,7.7085,7.7085,0,0,0,1.476.625q.7472.2271,2.4663.66a39.0014,39.0014,0,0,1,3.9,1.1113,11.8806,11.8806,0,0,1,2.97,1.4766,6.0757,6.0757,0,0,1,1.9106,2.1972A7.0415,7.0415,0,0,1,135.6392,130.084Z" style="fill:#00aa13"/></svg>