<svg xmlns="http://www.w3.org/2000/svg" viewBox="0 0 200 200"><title>Optical</title><circle cx="100" cy="100" r="95.4009" style="fill:#f06400"/><circle cx="98.4736" cy="85.8786" r="9.4927" transform="translate(-17.0967 24.922) rotate(-13.2826)" style="fill:#fff"/><path d="M98.4736,39.5a46.3787,46.3787,0,1,0,46.3787,46.3786A46.3786,46.3786,0,0,0,98.4736,39.5ZM60.3155,98.2259,80.6624,93.38a13.9321,13.9321,0,0,0,.8253,2.8148l-18.8,8.7572A34.2755,34.2755,0,0,1,60.3155,98.2259ZM79.5282,121.84a34.2261,34.2261,0,0,1-14.2346-12.3968L82.8564,98.0835a13.941,13.941,0,0,0,5.289,5.2465Zm18.9454-21.315A14.6459,14.6459,0,1,1,113.12,85.8786,14.6458,14.6458,0,0,1,98.4736,100.5245Z" style="fill:#fff"/><path d="M42.9367,157.8127v-23.119c.0387-.7026.1024-1.4049.1116-2.108.03-2.3054,1.1226-3.4485,3.3991-3.5045,2.5348-.0623,5.07-.0874,7.6048-.1731q10.681-.3607,21.367-.5765c8.3764-.1754,16.7537-.3628,25.1314-.41,9.406-.0527,18.812-.057,28.22.1126,8.152.1469,16.3025.3811,24.4554.4748a7.2961,7.2961,0,0,1,.8647.0516,3.0723,3.0723,0,0,1,2.7765,3.0575c.0574,1.8929.135,3.786.1446,5.6793q.0487,9.5358.052,19.0718.0044,3.3617-3.3478,3.4339c-5.0385.107-10.077.2259-15.1161.29-11.4279.1464-22.856.3164-34.2845.3741-8.764.0443-17.5284.0577-26.2937-.0589-10.5289-.14-21.0585-.2172-31.5871-.4062A3.4936,3.4936,0,0,1,42.9367,157.8127Z" style="fill:#fff"/><circle cx="59.1399" cy="144.1948" r="6.1055" style="fill:#f06400"/></svg>