<svg xmlns="http://www.w3.org/2000/svg" viewBox="0 0 200 200"><title>Server</title><circle cx="100" cy="100" r="95.7807" style="fill:#00aed6"/><path d="M52.595,131.2581v-19.206c.0322-.5837.0851-1.1672.0927-1.7512.025-1.9152.9326-2.8648,2.8238-2.9113,2.1057-.0518,4.2115-.0727,6.3176-.1438q8.8733-.3,17.7505-.479c6.9587-.1457,13.9181-.3013,20.8778-.34,7.814-.0438,15.628-.0474,23.4432.0935,6.7722.122,13.5432.3166,20.3162.3945a6.0435,6.0435,0,0,1,.7184.0428,2.5522,2.5522,0,0,1,2.3065,2.54c.0476,1.5725.1121,3.1452.12,4.718q.0405,7.9218.0432,15.8438a2.5209,2.5209,0,0,1-2.7811,2.8528c-4.1857.0888-8.3714.1876-12.5577.2412-9.4937.1216-18.9874.2628-28.4816.3108-7.2807.0367-14.5617.0479-21.8433-.049-8.7469-.1163-17.4943-.18-26.2408-.3374A2.9024,2.9024,0,0,1,52.595,131.2581Z" style="fill:#fff"/><path d="M92.6075,76.2967h23.6874a5.988,5.988,0,0,0,.7114.0856c4.1873.0181,8.3709.1588,12.5547.3214,4.7952.1864,9.5922.3283,14.3882.4982a2.3869,2.3869,0,0,1,2.3477,2.19c.073.6078.1035,1.2222.1252,1.8345.0775,2.1849.1361,4.3705.2144,6.5554.1424,3.97.2963,7.9393.44,11.9091a2.2572,2.2572,0,0,1-1.0057,2.06,2.9441,2.9441,0,0,1-1.85.3607c-6.3453-.1542-12.69-.3729-19.0359-.4463-7.92-.0917-15.8389-.24-23.7616-.1239-7.0668.1032-14.1338.1791-21.1989.3711q-12.1965.3315-24.3928.6705c-2.3076.0611-3.02-.6174-2.9709-2.8914.1009-4.6918.2387-9.3828.3738-14.0738.0545-1.8919.0959-3.786.228-5.6732a2.3989,2.3989,0,0,1,2.6189-2.4256c3.8364-.1374,7.6717-.31,11.5088-.4271,7.9951-.2431,15.9857-.6439,23.9862-.706C91.92,76.3833,92.2636,76.3277,92.6075,76.2967ZM108.79,91.0632a2.5908,2.5908,0,0,0-2.815-2.4459,2.471,2.471,0,0,0-2.5941,2.5077,2.7816,2.7816,0,0,0,2.6833,2.5342A2.72,2.72,0,0,0,108.79,91.0632Zm8.3083,2.4386a2.4315,2.4315,0,0,0,2.6193-2.3329,2.8547,2.8547,0,0,0-2.795-2.6928,2.5153,2.5153,0,1,0,.1757,5.0257Zm10.89.03a2.4261,2.4261,0,0,0,2.57-2.3856,2.9246,2.9246,0,0,0-2.7167-2.6712,2.4965,2.4965,0,0,0-2.5366,2.3183A2.6708,2.6708,0,0,0,127.9882,93.5316Zm-16.2658-5.1785a2.5316,2.5316,0,0,0,2.549-2.4683,2.6051,2.6051,0,0,0-2.8382-2.4452,2.5635,2.5635,0,0,0-2.5926,2.4335A2.8094,2.8094,0,0,0,111.7224,88.3531ZM100.349,88.1a2.4636,2.4636,0,0,0,2.616-2.3785,2.5328,2.5328,0,0,0-2.6508-2.4867,2.4809,2.4809,0,0,0-2.66,2.4584A2.4448,2.4448,0,0,0,100.349,88.1Zm22.0732-4.6448a2.3211,2.3211,0,0,0-2.55,2.25,2.5837,2.5837,0,0,0,2.6755,2.6106,2.2589,2.2589,0,0,0,2.4428-2.3342A2.4127,2.4127,0,0,0,122.4222,83.4553Zm12.9971,2.9757a2.7092,2.7092,0,0,0-2.6067-2.6022,2.4638,2.4638,0,0,0-2.56,2.296,2.6893,2.6893,0,0,0,2.6693,2.6562A2.42,2.42,0,0,0,135.4193,86.431Z" style="fill:#fff"/><path d="M99.9845,138.2959c7.1724,0,14.3453.0524,21.5171-.0143,7.598-.0708,15.1949-.2576,22.7923-.3878,2.2567-.0387,3.1182.8143,3.0592,3.0753-.1746,6.6884-.29,13.3786-.588,20.0635a2.5126,2.5126,0,0,1-2.6613,2.4974c-2.69.1094-5.3793.2314-8.07.3064-6.5018.181-13.0019.4115-19.5054.5521-7.2.1557-14.3984.1535-21.5968.0807-7.437-.0752-14.87-.3486-22.3019-.6447-5.6721-.226-11.3422-.5007-17.0132-.7526a2.3781,2.3781,0,0,1-2.3773-2.4159c-.0956-1.5156-.1289-3.0357-.1678-4.5543-.1314-5.1167-.2677-10.2333-.3715-15.3506-.041-2.02.7367-2.7835,2.7331-2.7511,8.9844.1456,17.9682.3146,26.9536.41Q91.1861,138.5029,99.9845,138.2959Z" style="fill:#fff"/><path d="M63.1022,120.1928a5.094,5.094,0,0,1,5.0446-5.2218,5.0276,5.0276,0,0,1,4.7386,5.08,5.1257,5.1257,0,0,1-5.0035,5.1867A4.8392,4.8392,0,0,1,63.1022,120.1928Z" style="fill:#00aed6"/><path d="M69.0885,84.5664a4.4478,4.4478,0,0,1,4.4907,4.6026A5.4213,5.4213,0,0,1,68.39,94.4256a4.5029,4.5029,0,0,1-4.6028-4.4275A5.28,5.28,0,0,1,69.0885,84.5664Z" style="fill:#00aed6"/><path d="M67.989,146.1428a5.331,5.331,0,0,1,5.1919,5.3949,4.7124,4.7124,0,0,1-4.6162,4.5869,5.3719,5.3719,0,0,1-5.1136-5.4939A4.461,4.461,0,0,1,67.989,146.1428Z" style="fill:#00aed6"/><rect x="77.8758" y="40.2812" width="7.952" height="28.0794" rx="3.3053" ry="3.3053" style="fill:#fff"/><path d="M69.3484,48.2073a2.6733,2.6733,0,0,0,0,3.77L71.2017,53.83a2.6734,2.6734,0,0,0,3.77,0l6.88-6.88-5.6229-5.6229Z" style="fill:#fff"/><path d="M87.4747,41.3268,81.8518,46.95l6.88,6.88a2.6734,2.6734,0,0,0,3.77,0l1.8533-1.8534a2.6733,2.6733,0,0,0,0-3.77Z" style="fill:#fff"/><rect x="77.8758" y="37.3508" width="7.952" height="7.952" transform="translate(-5.2487 69.982) rotate(-44.9998)" style="fill:#fff"/><rect x="113.0213" y="35.4829" width="7.952" height="28.0794" rx="3.3053" ry="3.3053" transform="translate(233.9946 99.0451) rotate(-180)" style="fill:#fff"/><path d="M129.5007,55.6362a2.6734,2.6734,0,0,0,0-3.77l-1.8533-1.8533a2.6732,2.6732,0,0,0-3.77,0l-6.88,6.88,5.6229,5.6229Z" style="fill:#fff"/><path d="M111.3744,62.5167l5.6229-5.6229-6.88-6.88a2.6731,2.6731,0,0,0-3.7695,0l-1.8534,1.8533a2.6734,2.6734,0,0,0,0,3.77Z" style="fill:#fff"/><rect x="113.0213" y="58.5407" width="7.952" height="7.952" transform="translate(-9.9384 101.0399) rotate(-44.9998)" style="fill:#fff"/></svg>