<svg xmlns="http://www.w3.org/2000/svg" viewBox="0 0 200 200"><title>Soundcard</title><circle cx="100" cy="100" r="95.4009" style="fill:#00aed6"/><path d="M116.4789,140.816H102.1021c-3.1329-.25-6.265-.5122-9.3991-.7476a10.2656,10.2656,0,0,1-9.5444-7.6876,1.5182,1.5182,0,0,0-1.4193-1.202q-5.5122-.9435-11.0062-1.9922a11.3546,11.3546,0,0,1-9.5289-10.15c-.6145-4.72-.8883-9.47-1.1868-14.2145-.23-3.6523-.3851-7.3148-.4032-10.9737-.0234-4.7223.307-9.4388.6458-14.1472a73.3513,73.3513,0,0,1,.9136-9.1836c.6326-3.1613,3.8025-6.4869,7.07-6.9023,4.4418-.5648,8.8519-1.3756,13.28-2.0516a180.5833,180.5833,0,0,1,27.163-2.38c7.2262-.0047,14.4255.4114,21.6226,1.0115,9.3047.776,18.5661,1.9436,27.8427,2.9735a8.2,8.2,0,0,1,7.3891,6.2624,15.6817,15.6817,0,0,1,.3455,2.8458c.5346,6.3749.9471,12.7555.9942,19.1555a15.5368,15.5368,0,0,0,.1224,2.7614v4.313c-.04.5777-.1227,1.1562-.1122,1.7331.061,3.3541-.1246,6.7019-.2959,10.0473-.3058,5.9719-.9379,11.9213-1.3575,17.8846-.3469,4.93-3.37,7.7694-6.4375,8.59a36.4482,36.4482,0,0,1-4.9718.67c-10.6836,1.3276-21.3762,2.5543-32.1383,3.0585C119.9516,140.573,118.2158,140.7065,116.4789,140.816Z" style="fill:#fff"/><path d="M56.7958,72.3549c-.3913,4.9785-.7221,9.9616-.8551,14.9548-.2125,7.9769.13,15.9455.44,23.9129.1836,4.72.8209,9.4026,1.2836,14.1.3251,3.3.732,6.6057.7906,9.9143.0621,3.5073-2.5112,5.3329-5.9326,4.5171a7.5721,7.5721,0,0,1-5.5059-6.2456c-.5631-5.8565-.8491-11.73-1.0788-17.609-.334-8.5493-.34-17.1049-.6249-25.6538-.0627-1.88-.1849-3.76-.1668-5.6412.0076-.7936-.3118-1.1061-1.0925-1.1115-1.7106-.0119-3.4235-.0242-5.1308-.12a6.3057,6.3057,0,0,1-5.8982-6.1344c-.03-1.4712-.0457-2.9453.01-4.4152a6.6545,6.6545,0,0,1,6.5726-6.429c3.9008-.0741,7.7891-.3829,11.6794-.6458a4.776,4.776,0,0,1,5.2763,3.9562A8.6666,8.6666,0,0,1,56.7958,72.3549Z" style="fill:#fff"/><path d="M147.7319,94.0607a3.5109,3.5109,0,0,0-3.45-2.9343h-6.4688a2.919,2.919,0,0,0-2.9105,2.91v1.2076l-13.8171-13.817a3.7224,3.7224,0,0,0-2.6319-1.09h0A4.7228,4.7228,0,0,0,113.73,85.06v33.3812a4.7228,4.7228,0,0,0,4.7228,4.7228h0a3.7223,3.7223,0,0,0,2.6319-1.09l13.8172-13.8171v1.637a2.919,2.919,0,0,0,2.9105,2.91h6.4688a3.509,3.509,0,0,0,3.4918-3.3223c.0031-.0595.0091-.1182.0091-.1785V94.6272A3.4708,3.4708,0,0,0,147.7319,94.0607Z" style="fill:#00aed6"/><polygon points="99.728 75.959 96.122 76.834 88.605 78.635 88.605 78.633 86.783 78.633 86.783 78.635 86.781 78.635 86.781 82.255 86.783 82.255 86.783 92.725 88.605 92.725 88.605 82.255 97.897 82.255 97.897 90.121 99.719 90.121 99.719 78.633 99.728 75.959" style="fill:#00aed6"/><circle cx="96.5091" cy="90.0147" r="3.2193" style="fill:#00aed6"/><circle cx="85.3935" cy="92.5658" r="3.2193" style="fill:#00aed6"/></svg>